<?xml version="1.0" encoding="UTF-8"?>
<!-- Generator: Adobe Illustrator 16.0.0, SVG Export Plug-In . SVG Version: 6.00 Build 0)  -->
<!DOCTYPE svg PUBLIC "-//W3C//DTD SVG 1.1//EN" "http://www.w3.org/Graphics/SVG/1.1/DTD/svg11.dtd">
<svg version="1.1" id="Calque_1" xmlns="http://www.w3.org/2000/svg" xmlns:xlink="http://www.w3.org/1999/xlink" x="0px" y="0px" width="150px" height="37.893px" viewBox="75 18.946 150 37.893" enable-background="new 75 18.946 150 37.893" xml:space="preserve">
<g>
	<rect x="68.48" y="13.606" fill="none" width="161.653" height="47.034"/>
	<g>
		<path fill="#0B1213" d="M222.479,48.34c-0.213-0.266-0.626-0.561-1.237-0.883l-0.137-0.076c-0.32-0.166-0.536-0.306-0.648-0.42    c-0.107-0.114-0.164-0.256-0.164-0.427c0-0.205,0.06-0.361,0.182-0.466c0.119-0.103,0.3-0.157,0.541-0.157    c0.196,0,0.372,0.037,0.525,0.109c0.151,0.074,0.293,0.192,0.428,0.355l0.625-0.587l-0.063-0.063    c-0.198-0.197-0.425-0.346-0.681-0.45c-0.258-0.104-0.538-0.154-0.834-0.154c-0.493,0-0.883,0.128-1.17,0.388    c-0.285,0.257-0.431,0.609-0.431,1.052c0,0.185,0.025,0.349,0.074,0.498c0.051,0.148,0.128,0.282,0.23,0.406    c0.11,0.127,0.261,0.26,0.45,0.392c0.187,0.133,0.424,0.275,0.714,0.429l0.141,0.071c0.359,0.191,0.596,0.361,0.711,0.512    c0.116,0.153,0.175,0.325,0.175,0.523c0,0.239-0.078,0.43-0.229,0.57c-0.151,0.14-0.361,0.209-0.626,0.209    c-0.219,0-0.423-0.05-0.609-0.15c-0.186-0.101-0.391-0.272-0.618-0.518l-0.613,0.631l0.061,0.053    c0.279,0.278,0.56,0.479,0.838,0.603c0.28,0.119,0.601,0.181,0.959,0.181c0.531,0,0.953-0.142,1.263-0.425    c0.311-0.285,0.466-0.677,0.466-1.173C222.798,48.954,222.69,48.606,222.479,48.34 M215.391,49.995    c-0.05,0-0.092,0.006-0.113,0.015c-0.028,0.007-0.057,0.026-0.085,0.05l-0.028-0.027c0.021-0.031,0.035-0.06,0.048-0.086    c0.011-0.028,0.016-0.065,0.016-0.114v-1.243c0-0.039-0.005-0.074-0.016-0.106c-0.01-0.028-0.026-0.059-0.048-0.089l0.032-0.03    c0.031,0.023,0.056,0.039,0.081,0.047c0.021,0.01,0.059,0.014,0.113,0.016h1.902v-0.853h-1.902c-0.048,0-0.084,0.004-0.11,0.011    c-0.024,0.008-0.055,0.024-0.09,0.052l-0.03-0.032c0.025-0.039,0.044-0.071,0.052-0.099c0.011-0.027,0.014-0.059,0.014-0.095    V46.26c0-0.039-0.005-0.074-0.014-0.104c-0.013-0.03-0.026-0.062-0.048-0.093l0.026-0.031c0.041,0.023,0.073,0.042,0.101,0.052    c0.028,0.011,0.063,0.014,0.1,0.014h2.178l-0.096-0.871h-3.15v5.639h3.141l0.105-0.872h-2.178V49.995L215.391,49.995z     M210.73,49.995c-0.049,0-0.086,0.006-0.113,0.015c-0.025,0.007-0.052,0.026-0.079,0.05l-0.032-0.03    c0.024-0.026,0.041-0.053,0.051-0.078c0.009-0.023,0.015-0.061,0.015-0.117v-4.611h-0.931v5.646h2.865l0.139-0.872h-1.914V49.995    L210.73,49.995z M206.039,49.995c-0.051,0-0.091,0.006-0.115,0.015c-0.025,0.007-0.052,0.026-0.078,0.05l-0.032-0.03    c0.025-0.026,0.041-0.053,0.052-0.078c0.009-0.023,0.014-0.061,0.014-0.117v-4.611h-0.93v5.646h2.864l0.141-0.872h-1.914    L206.039,49.995L206.039,49.995z M200.76,49.995c-0.051,0-0.088,0.006-0.114,0.015c-0.028,0.007-0.054,0.026-0.084,0.05    l-0.026-0.027c0.02-0.031,0.036-0.06,0.047-0.086c0.011-0.028,0.016-0.065,0.016-0.114v-1.243c0-0.039-0.005-0.074-0.016-0.106    c-0.011-0.028-0.027-0.059-0.047-0.089l0.031-0.03c0.029,0.023,0.054,0.039,0.079,0.047c0.024,0.01,0.062,0.014,0.114,0.016h1.902    v-0.853h-1.902c-0.048,0-0.083,0.004-0.109,0.011c-0.026,0.008-0.053,0.024-0.09,0.052l-0.03-0.032    c0.025-0.039,0.042-0.071,0.052-0.099s0.014-0.059,0.014-0.095V46.26c0-0.039-0.007-0.074-0.016-0.104    c-0.01-0.03-0.027-0.062-0.047-0.093l0.026-0.031c0.039,0.023,0.073,0.042,0.101,0.052c0.029,0.011,0.062,0.014,0.097,0.014h2.179    l-0.096-0.871h-3.149v5.639h3.142l0.104-0.872h-2.177L200.76,49.995L200.76,49.995z M196.403,48.124    c-0.026-0.051-0.048-0.081-0.064-0.097c-0.017-0.013-0.042-0.026-0.07-0.032v-0.031c0.028-0.01,0.054-0.021,0.07-0.034    c0.017-0.015,0.038-0.046,0.064-0.098l1.481-2.601h-1.018l-0.843,1.585c-0.071,0.127-0.114,0.23-0.14,0.311    s-0.043,0.207-0.058,0.381h-0.038c-0.013-0.163-0.032-0.286-0.059-0.37c-0.023-0.084-0.071-0.191-0.14-0.321l-0.844-1.585h-1.02    l1.475,2.601c0.024,0.044,0.044,0.074,0.064,0.093s0.046,0.031,0.074,0.04v0.03c-0.029,0.01-0.052,0.022-0.074,0.041    c-0.021,0.02-0.04,0.049-0.064,0.09l-1.528,2.743h1.023l0.895-1.717c0.08-0.154,0.13-0.271,0.15-0.353    c0.025-0.083,0.041-0.195,0.049-0.341h0.038c0.016,0.165,0.032,0.286,0.056,0.366c0.021,0.079,0.068,0.188,0.141,0.327    l0.894,1.715h1.023L196.403,48.124z M192.008,45.229h-0.928v3.262c0,0.539-0.106,0.943-0.323,1.208    c-0.217,0.268-0.548,0.4-0.985,0.4c-0.439,0-0.768-0.133-0.984-0.4c-0.219-0.265-0.325-0.669-0.325-1.208v-3.262h-0.923v3.168    c0,0.468,0.046,0.849,0.138,1.142c0.093,0.293,0.236,0.542,0.427,0.742c0.213,0.222,0.463,0.394,0.749,0.512    c0.288,0.119,0.595,0.181,0.921,0.181c0.325,0,0.632-0.062,0.92-0.181c0.288-0.118,0.536-0.29,0.749-0.512    c0.192-0.2,0.336-0.449,0.43-0.742c0.092-0.293,0.139-0.674,0.139-1.142v-3.168H192.008z M184.445,48.628    c-0.055-0.075-0.12-0.147-0.196-0.217c-0.076-0.067-0.167-0.133-0.271-0.192l0.017-0.029c0.069,0.02,0.133,0.033,0.188,0.042    c0.055,0.01,0.107,0.016,0.16,0.016c0.348,0,0.641-0.138,0.882-0.417c0.237-0.275,0.36-0.616,0.36-1.018    c0-0.515-0.156-0.906-0.47-1.179c-0.311-0.271-0.769-0.407-1.37-0.407h-1.489v5.638h0.89v-1.987c0-0.211-0.008-0.367-0.016-0.468    c-0.01-0.102-0.031-0.217-0.059-0.35l0.039-0.011c0.044,0.119,0.091,0.222,0.135,0.309c0.048,0.085,0.126,0.205,0.234,0.36    l1.445,2.146h1.008L184.445,48.628z M184.52,47.433c-0.147,0.131-0.373,0.195-0.684,0.195h-0.55c-0.051,0-0.088,0.006-0.114,0.015    c-0.023,0.009-0.05,0.025-0.079,0.049l-0.031-0.03c0.031-0.037,0.053-0.068,0.065-0.096c0.01-0.03,0.018-0.063,0.018-0.1v-1.291    c-0.012-0.048-0.022-0.088-0.034-0.115c-0.013-0.027-0.027-0.054-0.049-0.083l0.031-0.031c0.033,0.025,0.063,0.043,0.087,0.05    c0.022,0.01,0.058,0.011,0.106,0.011h0.55c0.308,0,0.535,0.065,0.68,0.197c0.147,0.133,0.221,0.334,0.221,0.61    C184.738,47.095,184.663,47.3,184.52,47.433 M180.002,48.317c-0.189-0.232-0.449-0.379-0.779-0.438v-0.049    c0.276-0.082,0.485-0.216,0.619-0.399c0.135-0.184,0.203-0.426,0.203-0.724c0-0.482-0.154-0.848-0.462-1.101    s-0.762-0.38-1.356-0.38h-1.574v5.638h1.692c0.608,0,1.083-0.157,1.425-0.473c0.342-0.312,0.512-0.716,0.512-1.212    C180.283,48.836,180.188,48.547,180.002,48.317 M178.994,47.339c-0.143,0.136-0.345,0.204-0.607,0.204h-0.728    c-0.048,0-0.082,0.007-0.105,0.014c-0.025,0.011-0.053,0.028-0.087,0.055l-0.032-0.031c0.003-0.006,0.007-0.012,0.012-0.021    c0.038-0.06,0.059-0.119,0.059-0.178v-1.212c-0.002-0.037-0.01-0.069-0.02-0.093c-0.007-0.025-0.024-0.058-0.051-0.1l0.032-0.032    c0.031,0.024,0.058,0.044,0.082,0.051c0.025,0.008,0.062,0.011,0.11,0.011h0.62c0.326,0,0.562,0.063,0.708,0.182    c0.145,0.122,0.219,0.307,0.219,0.563S179.136,47.203,178.994,47.339 M179.163,49.827c-0.177,0.16-0.425,0.241-0.745,0.241h-0.75    c-0.048,0-0.082,0.003-0.108,0.013c-0.022,0.009-0.05,0.028-0.087,0.053l-0.031-0.036c0.03-0.035,0.047-0.065,0.052-0.088    c0.01-0.021,0.012-0.057,0.012-0.106v-1.454c0-0.039-0.002-0.073-0.012-0.095c-0.006-0.024-0.023-0.057-0.052-0.099l0.031-0.036    c0.037,0.025,0.064,0.045,0.087,0.052c0.026,0.011,0.061,0.016,0.108,0.016h0.718c0.202,0,0.363,0.019,0.488,0.058    c0.12,0.037,0.226,0.104,0.317,0.2c0.071,0.079,0.132,0.174,0.174,0.28c0.043,0.105,0.063,0.217,0.063,0.329    C179.428,49.443,179.339,49.666,179.163,49.827 M174.52,48.41h-1.95v0.834h1.95V48.41z M168.646,49.995    c-0.052,0-0.091,0.006-0.115,0.015c-0.026,0.007-0.053,0.026-0.083,0.05l-0.029-0.027c0.022-0.031,0.039-0.06,0.049-0.086    c0.011-0.028,0.017-0.065,0.017-0.114v-1.243c0-0.039-0.006-0.074-0.017-0.106c-0.01-0.028-0.026-0.059-0.049-0.089l0.032-0.03    c0.029,0.023,0.056,0.039,0.079,0.047c0.024,0.01,0.062,0.014,0.114,0.016h1.902v-0.853h-1.902c-0.047,0-0.084,0.004-0.107,0.011    c-0.025,0.008-0.057,0.024-0.091,0.052l-0.031-0.032c0.026-0.039,0.044-0.071,0.053-0.099c0.011-0.027,0.015-0.059,0.015-0.095    V46.26c0-0.039-0.006-0.074-0.018-0.104c-0.009-0.03-0.025-0.062-0.047-0.093l0.028-0.031c0.039,0.023,0.073,0.042,0.102,0.052    c0.027,0.011,0.061,0.014,0.096,0.014h2.176l-0.093-0.871h-3.151v5.639h3.142l0.103-0.872h-2.175v0.002H168.646z M165.278,45.22    h-0.927v5.645h0.927V45.22z M162.05,45.229h-0.895v3.464c0,0.161,0.013,0.33,0.04,0.503c0.027,0.172,0.07,0.383,0.132,0.629    l-0.04,0.009c-0.072-0.214-0.146-0.396-0.217-0.544c-0.069-0.148-0.152-0.293-0.248-0.434l-2.49-3.627h-0.829v5.638h0.896v-3.471    c0-0.148-0.011-0.298-0.033-0.445c-0.022-0.151-0.068-0.376-0.137-0.681l0.042-0.008c0.087,0.255,0.16,0.44,0.218,0.562    c0.057,0.116,0.138,0.254,0.243,0.408l2.485,3.633h0.832V45.229z M154.756,45.938c-0.529-0.546-1.215-0.816-2.055-0.816    c-0.813,0-1.482,0.274-2.009,0.825c-0.525,0.55-0.787,1.249-0.787,2.093c0,0.855,0.263,1.559,0.789,2.104    c0.528,0.547,1.204,0.82,2.03,0.82c0.822,0,1.502-0.273,2.031-0.82c0.528-0.546,0.794-1.244,0.794-2.095    C155.55,47.186,155.286,46.482,154.756,45.938 M154.094,49.524c-0.346,0.373-0.8,0.56-1.369,0.56c-0.566,0-1.023-0.187-1.368-0.56    c-0.345-0.374-0.518-0.868-0.518-1.481s0.174-1.107,0.522-1.481c0.347-0.375,0.805-0.562,1.373-0.562    c0.557,0,1.007,0.188,1.356,0.568c0.347,0.381,0.523,0.872,0.523,1.475C154.613,48.656,154.44,49.15,154.094,49.524     M146.755,49.995c-0.051,0-0.09,0.006-0.115,0.015c-0.027,0.007-0.052,0.026-0.081,0.05l-0.031-0.03    c0.024-0.026,0.041-0.053,0.05-0.078c0.01-0.023,0.013-0.061,0.013-0.117v-4.611h-0.928v5.646h2.864l0.138-0.872h-1.911V49.995    L146.755,49.995z M142.062,49.995c-0.051,0-0.089,0.006-0.115,0.015c-0.026,0.007-0.052,0.026-0.079,0.05l-0.031-0.03    c0.023-0.026,0.042-0.053,0.05-0.078c0.009-0.023,0.013-0.061,0.013-0.117v-4.611h-0.928v5.646h2.863l0.139-0.872h-1.91    L142.062,49.995L142.062,49.995z M137.245,45.229h-0.807l-2.049,5.636h0.929l0.6-1.69h1.855l0.597,1.69h0.924L137.245,45.229z     M137.555,48.381c-0.029-0.009-0.056-0.019-0.083-0.021c-0.026-0.006-0.058-0.01-0.094-0.01h-1.07    c-0.033,0-0.062,0.004-0.085,0.008c-0.022,0.004-0.052,0.011-0.088,0.023l-0.029-0.037c0.024-0.019,0.042-0.039,0.056-0.056    c0.013-0.02,0.025-0.046,0.036-0.077l0.535-1.544c0.024-0.065,0.043-0.158,0.057-0.279c0.015-0.119,0.025-0.26,0.03-0.411h0.043    c0.006,0.153,0.015,0.292,0.03,0.411c0.015,0.12,0.034,0.214,0.058,0.279l0.529,1.544c0.011,0.031,0.022,0.058,0.037,0.077    c0.015,0.017,0.035,0.037,0.061,0.056L137.555,48.381z M132.575,45.229l-1.064,3.701c-0.042,0.148-0.072,0.279-0.087,0.398    c-0.016,0.114-0.028,0.305-0.036,0.568h-0.047c-0.028-0.272-0.051-0.467-0.072-0.584c-0.022-0.117-0.054-0.243-0.1-0.383    l-0.969-2.856l-0.965,2.865c-0.046,0.135-0.082,0.257-0.103,0.374c-0.021,0.115-0.045,0.312-0.072,0.584h-0.047    c-0.009-0.265-0.019-0.454-0.034-0.568c-0.015-0.115-0.046-0.246-0.09-0.398l-1.065-3.701h-0.984l1.708,5.636h0.838l0.703-2.252    c0.021-0.07,0.039-0.172,0.053-0.298c0.014-0.127,0.026-0.281,0.034-0.464l0.04-0.006c0.008,0.184,0.019,0.339,0.034,0.465    c0.014,0.128,0.033,0.229,0.057,0.3l0.708,2.255h0.829l1.716-5.638h-0.985L132.575,45.229L132.575,45.229z"/>
		<path fill="#0B1213" d="M222.648,31.301h-1.622v6.289c0,0.293,0.024,0.597,0.073,0.913c0.048,0.315,0.127,0.694,0.239,1.142    l-0.075,0.017c-0.135-0.391-0.264-0.72-0.391-0.988c-0.128-0.27-0.28-0.532-0.452-0.788l-4.521-6.584h-1.507v10.233h1.627v-6.304    c0-0.269-0.018-0.538-0.061-0.808c-0.039-0.27-0.124-0.68-0.249-1.233l0.073-0.013c0.162,0.461,0.297,0.799,0.401,1.017    c0.103,0.216,0.251,0.464,0.443,0.742l4.515,6.6h1.506V31.301L222.648,31.301z M209.499,32.587    c-0.962-0.987-2.205-1.481-3.728-1.481c-1.479,0-2.693,0.5-3.648,1.5c-0.955,1.001-1.43,2.268-1.43,3.802    c0,1.553,0.477,2.825,1.436,3.819c0.956,0.993,2.185,1.489,3.684,1.489c1.496,0,2.727-0.496,3.687-1.489    c0.96-0.994,1.442-2.262,1.442-3.804C210.941,34.855,210.459,33.576,209.499,32.587 M208.298,39.098    c-0.629,0.677-1.456,1.018-2.485,1.018c-1.028,0-1.855-0.341-2.482-1.018c-0.628-0.68-0.944-1.576-0.944-2.691    c0-1.11,0.317-2.006,0.951-2.686c0.631-0.68,1.462-1.02,2.49-1.02c1.009,0,1.831,0.343,2.462,1.035    c0.635,0.689,0.948,1.581,0.948,2.671C209.237,37.523,208.925,38.418,208.298,39.098 M197.135,31.286h-1.681v10.249h1.681V31.286z     M192.167,31.301h-6.058l-0.217,1.536h2.121c0.089,0,0.16-0.008,0.207-0.025c0.049-0.017,0.096-0.047,0.145-0.091l0.065,0.058    c-0.055,0.077-0.086,0.139-0.104,0.185c-0.013,0.044-0.021,0.102-0.021,0.169v8.402h1.66v-8.402c0-0.077-0.008-0.14-0.026-0.191    c-0.016-0.05-0.047-0.107-0.089-0.168l0.057-0.058c0.062,0.049,0.115,0.081,0.159,0.097c0.042,0.017,0.108,0.025,0.194,0.025    h2.128L192.167,31.301z M180.925,31.301h-1.467l-3.721,10.233h1.688l1.089-3.073h3.369l1.082,3.073h1.68L180.925,31.301z     M181.484,37.027c-0.053-0.02-0.103-0.034-0.148-0.043c-0.052-0.01-0.107-0.015-0.176-0.015h-1.94    c-0.063,0-0.112,0.004-0.155,0.01c-0.04,0.007-0.094,0.022-0.162,0.048l-0.051-0.072c0.043-0.034,0.076-0.067,0.102-0.101    c0.024-0.034,0.045-0.08,0.065-0.138l0.973-2.806c0.046-0.119,0.077-0.29,0.104-0.508c0.026-0.217,0.046-0.466,0.054-0.746h0.079    c0.01,0.279,0.028,0.529,0.053,0.746c0.026,0.22,0.063,0.39,0.104,0.508l0.961,2.806c0.021,0.058,0.041,0.104,0.069,0.138    c0.027,0.033,0.063,0.066,0.109,0.101L181.484,37.027z M170.498,37.474c-0.095-0.139-0.214-0.27-0.354-0.393    c-0.139-0.123-0.301-0.24-0.49-0.351l0.028-0.05c0.126,0.033,0.239,0.059,0.342,0.076c0.1,0.016,0.196,0.025,0.287,0.025    c0.634,0,1.171-0.251,1.605-0.754c0.434-0.503,0.652-1.118,0.652-1.849c0-0.934-0.284-1.647-0.848-2.14    c-0.57-0.491-1.398-0.739-2.489-0.739h-2.706v10.234h1.614v-3.606c0-0.384-0.009-0.668-0.028-0.851s-0.054-0.394-0.109-0.635    l0.072-0.021c0.081,0.217,0.164,0.403,0.249,0.559c0.083,0.156,0.226,0.374,0.423,0.653l2.624,3.901h1.833L170.498,37.474z     M170.635,35.301c-0.264,0.237-0.678,0.356-1.24,0.356h-0.992c-0.093,0-0.163,0.009-0.209,0.026    c-0.046,0.017-0.094,0.046-0.147,0.09l-0.056-0.058c0.056-0.063,0.095-0.121,0.116-0.174c0.023-0.053,0.033-0.112,0.033-0.18    v-2.344c-0.02-0.087-0.04-0.155-0.063-0.205c-0.02-0.051-0.051-0.103-0.089-0.155l0.056-0.059    c0.063,0.049,0.115,0.081,0.159,0.094c0.044,0.014,0.107,0.021,0.196,0.021h0.993c0.559,0,0.971,0.12,1.235,0.358    c0.267,0.238,0.402,0.607,0.402,1.109C171.031,34.688,170.899,35.062,170.635,35.301 M159.42,28.149l-0.707,1.982h1.24    l1.328-1.982H159.42z M159.038,39.957c-0.092,0-0.162,0.008-0.209,0.024c-0.051,0.018-0.099,0.046-0.155,0.09l-0.047-0.051    c0.036-0.052,0.065-0.104,0.085-0.156c0.019-0.051,0.029-0.116,0.029-0.205v-2.258c0-0.072-0.011-0.135-0.029-0.191    c-0.02-0.055-0.049-0.11-0.085-0.163l0.056-0.057c0.052,0.044,0.101,0.073,0.146,0.087c0.043,0.014,0.111,0.023,0.209,0.03h3.455    v-1.551h-3.455c-0.088,0-0.154,0.006-0.198,0.021c-0.046,0.015-0.101,0.046-0.165,0.094l-0.053-0.059    c0.046-0.072,0.078-0.132,0.094-0.179c0.018-0.048,0.026-0.106,0.026-0.173v-2.084c0-0.072-0.011-0.136-0.029-0.191    c-0.02-0.054-0.049-0.112-0.085-0.169l0.047-0.057c0.074,0.048,0.135,0.079,0.186,0.097c0.053,0.016,0.11,0.024,0.178,0.024h3.952    l-0.172-1.58h-5.721v10.235h5.705l0.188-1.579h-3.951L159.038,39.957L159.038,39.957z M152.166,32.742    c-1.021-0.962-2.313-1.441-3.88-1.441h-2.748v10.233h2.689c1.62,0,2.936-0.483,3.948-1.449s1.521-2.188,1.521-3.664    C153.696,34.931,153.187,33.705,152.166,32.742 M150.991,38.994c-0.703,0.67-1.594,1.005-2.677,1.005h-0.807    c-0.097,0-0.167,0.009-0.209,0.022c-0.045,0.015-0.092,0.044-0.146,0.095l-0.065-0.061c0.052-0.052,0.086-0.101,0.101-0.143    c0.015-0.045,0.021-0.113,0.021-0.208v-6.573c0-0.072-0.007-0.132-0.024-0.179c-0.017-0.047-0.05-0.106-0.098-0.174l0.065-0.064    c0.063,0.049,0.115,0.081,0.159,0.098c0.043,0.016,0.107,0.025,0.195,0.025h0.886c1.047,0,1.917,0.338,2.611,1.013    s1.037,1.534,1.037,2.571C152.043,37.464,151.691,38.321,150.991,38.994 M138.419,28.149l-0.707,1.982h1.241l1.327-1.982H138.419z     M138.038,39.957c-0.092,0-0.161,0.008-0.209,0.024c-0.049,0.018-0.099,0.046-0.152,0.09l-0.051-0.051    c0.038-0.052,0.068-0.104,0.086-0.156c0.019-0.051,0.029-0.116,0.029-0.205v-2.258c0-0.072-0.01-0.135-0.029-0.191    c-0.019-0.055-0.048-0.11-0.086-0.163l0.058-0.057c0.052,0.044,0.099,0.073,0.144,0.087c0.042,0.014,0.114,0.023,0.209,0.03h3.454    v-1.551h-3.454c-0.087,0-0.152,0.006-0.198,0.021c-0.045,0.015-0.1,0.046-0.163,0.094l-0.058-0.059    c0.049-0.072,0.081-0.132,0.097-0.179c0.017-0.048,0.025-0.106,0.025-0.173v-2.084c0-0.072-0.01-0.136-0.029-0.191    c-0.019-0.054-0.048-0.112-0.086-0.169l0.05-0.057c0.073,0.048,0.134,0.079,0.185,0.097c0.05,0.016,0.109,0.024,0.176,0.024h3.952    l-0.173-1.58h-5.719v10.235h5.705l0.187-1.579h-3.95L138.038,39.957L138.038,39.957z M132.746,31.301h-5.763v10.233h1.688v-4.132    c0-0.087-0.009-0.152-0.025-0.198c-0.017-0.046-0.047-0.1-0.091-0.163l0.057-0.058c0.062,0.048,0.116,0.081,0.16,0.098    c0.043,0.017,0.108,0.025,0.194,0.025h3.427v-1.551h-3.455c-0.105,0-0.178,0.007-0.217,0.021    c-0.038,0.015-0.086,0.043-0.144,0.086l-0.058-0.05c0.062-0.073,0.104-0.132,0.123-0.18c0.02-0.047,0.029-0.106,0.029-0.173    v-2.071c-0.018-0.101-0.039-0.173-0.058-0.216c-0.019-0.043-0.051-0.089-0.093-0.136l0.065-0.058    c0.062,0.05,0.114,0.079,0.158,0.094c0.043,0.015,0.108,0.021,0.195,0.021h4.075L132.746,31.301z"/>
	</g>
	<path fill="#E01F21" d="M81.721,21.038c-1.105,0-1.859,0.606-1.902,1.018c-0.046,0.454,0.248,0.898,0.646,1.203   c2.917,2.251-5.5,6.629-4.461,15.545c0.736,6.308,8.094,14.907,9.611,14.907c0.057,0,0.107-0.011,0.146-0.037   c1.172-0.749-3.448-9.008-4.506-11.735c-2.352-6.118,1.198-10.031,2.582-12.31c1.817-2.994,2.261-5.83,0.841-7.196   C83.595,21.385,82.557,21.038,81.721,21.038"/>
	<path fill="#FAB900" d="M102.553,23.531c-0.099,0-0.199,0.001-0.301,0.006c-10.719,0.476-12.29,13.445-12.315,18.143   c0,0.405,0.031,2.46-0.446,2.46c-0.097,0-0.215-0.084-0.359-0.286c-0.557-0.785-2.148-3.065-2.622-3.681   c-0.136-0.175-0.323-0.262-0.504-0.262c-0.381,0-0.74,0.389-0.576,1.171c0.083,0.396,1.146,4.826,2.674,6.649   c0.441,0.529,1.452,1.275,2.497,1.275c1.017,0,2.067-0.707,2.658-3.005c1.022-3.557-0.192-17.699,12.019-19.314   c0.966-0.13,1.337-1.26,0.77-1.927C105.646,24.29,104.418,23.531,102.553,23.531"/>
	<path fill="#212E79" d="M109.091,36.213c-0.386-0.118-0.403-0.357-0.119-0.776c0.489-0.718,2.48-5.05,0.025-7.325   c-0.199-0.186-0.459-0.378-0.74-0.511c-0.45-0.212-1.019,0.013-1.012,0.762c0.059,5.493-2.678,6.547-6.509,6.587h-0.455v2.525   l3.392,0.23l0.062,0.007c3.665,0.284,5.871,2.673,5.871,5.427c0,3.312-2.788,5.448-5.87,5.448c-1.023,0-2.073-0.207-2.92-0.73   c-0.159-0.099-0.377-0.251-0.544-0.379c0,0.429,0.003,5.388,0.003,5.388c1.169,0.55,2.497,0.876,4.212,0.876   c4.933,0,11.104-3.59,11.104-9.86C115.592,40.615,112.843,37.375,109.091,36.213"/>
</g>
</svg>